<svg xmlns="http://www.w3.org/2000/svg" xmlns:xlink="http://www.w3.org/1999/xlink" x="0px" y="0px" viewBox="0 0 487.2 152.9">
<style type="text/css">.st0{opacity:0.9;fill:url(#SVGID_1_);enable-background:new;}.st1{opacity:0.2;fill:#FFFFFF;}</style>
<linearGradient id="SVGID_1_" gradientUnits="userSpaceOnUse" x1="100.6082" y1="126.9628" x2="13.9481" y2="68.9628" gradientTransform="matrix(1 0 0 -1 -3.000000e-02 153.32)"><stop offset="1.000000e-02" style="stop-color:#43C8BB"/><stop offset="0.98" style="stop-color:#20B7D2"/></linearGradient>
<path class="st0" d="M131.9,27.6L131.9,27.6c-1.2,0.6-2.5,1.1-3.7,1.6c-2.9,1-5.9,1.5-8.9,1.5c-15.4,0-27.8-12.5-27.8-27.8c0,0,0,0,0,0c0-0.2,0-0.4,0-0.6h0C81-0.3,70.3-0.6,59.8,1.2h-0.1C59,16.1,46.7,27.8,31.8,27.8c-5,0-10-1.4-14.3-3.9L17.5,24C10.1,31.8,4.4,41.2,0.8,51.5v0.1c8,5.1,12.8,14,12.8,23.4c0,9.8-5.2,18.9-13.6,23.9l0,0L0,99.1c3,9.6,7.9,18.6,14.4,26.3c12.8-6.8,22.7-18,27.7-31.7v-0.1c2.3-6.4,3.5-13.1,3.5-19.8c0-4.6-0.5-9.2-1.6-13.6c12.1-2.3,23.2-8.4,31.6-17.4c8,8.5,18.3,14.4,29.6,17l0.6,0.1c4,0.9,8.2,1.3,12.3,1.3c9.5,0,18.8-2.3,27.2-6.8c0.3-0.2,0.6-0.4,0.9-0.5C143.2,44.3,138.3,35.4,131.9,27.6z"/><path fill="#fff" d="M118.1,70.5c-5,0-10.1-0.7-14.9-1.9c-1.2,7.8-0.8,15.7,1.2,23.3c-13.1,1.9-25.1,8.2-34.1,17.9c-5.3-5.5-11.7-10-18.8-13.1c-3.5,10.4-9.9,19.6-18.5,26.6c12.6,2.9,21.6,14.2,21.6,27.1c0,0,0,0,0,0.1l0,0c10.4,2.6,21.3,3,31.9,1.1h0.2c0.7-15.4,13.7-27.3,29-26.6c4.6,0.2,9,1.5,13,3.9c0.6-0.6,1.1-1.3,1.7-1.9c6.7-7.5,11.8-16.3,15.1-25.7h-0.1c-11-7-15.6-20.8-11.1-33C128.9,69.8,123.5,70.5,118.1,70.5z"/><path class="st1" d="M145.3,54.4c0.3-0.2,0.6-0.4,0.9-0.5c-3-9.6-7.8-18.5-14.2-26.3c-12.2,7.3-21.5,18.8-26.1,32.3c4,0.9,8.2,1.3,12.3,1.3C127.5,61.2,136.9,58.9,145.3,54.4z"/><path class="st1" d="M0,98.9L0,99.1c3,9.6,7.9,18.6,14.4,26.3c12.8-6.8,22.7-18,27.7-31.7C27.9,90.2,12.9,92.1,0,98.9z"/><path fill="#fff" d="M175.3,75.2v29.6h-11.4V50.2h11.4v10c1.6-3.3,4.2-6.1,7.4-7.9c3.2-1.9,6.9-2.9,10.6-2.9c8.6,0,14.4,3.6,17.4,10.7c5.3-7.1,12-10.7,20.1-10.7c6.1,0,11.1,1.9,14.8,5.7s5.7,9.2,5.6,16.3v33.5h-11.4v-30c0-10.1-4.1-15.1-12.4-15.1c-3.7-0.1-7.3,1.3-10.1,3.7c-2.9,2.5-4.4,6.1-4.5,10.9v30.4h-11.4v-30c0-5.2-0.9-9-2.8-11.5c-1.8-2.4-4.7-3.6-8.6-3.6c-3.8,0-7.5,1.4-10.3,4C176.8,66.3,175.3,70.2,175.3,75.2z"/><path fill="#fff" d="M307.4,97.4c-5.4,5.4-12.2,8.2-20.4,8.2s-14.9-2.7-20.4-8.2c-5.4-5.3-8.3-12.5-8.1-20c-0.2-7.5,2.8-14.7,8.1-20c5.4-5.4,12.2-8.2,20.4-8.2s14.9,2.7,20.4,8.2c5.4,5.3,8.3,12.5,8.1,20C315.7,84.9,312.8,92.2,307.4,97.4z M274.8,90.4c6.8,6.6,17.7,6.6,24.5,0c3.2-3.3,4.8-7.6,4.8-12.9c0-5.3-1.6-9.5-4.8-12.9c-6.8-6.6-17.7-6.6-24.5,0c-3.2,3.3-4.8,7.6-4.8,12.9C269.9,82.8,271.5,87.1,274.8,90.4z"/><path fill="#fff" d="M327.6,97.8c-5.1-5.2-7.6-12-7.6-20.5s2.6-15.3,7.8-20.3c4.9-5,11.7-7.7,18.7-7.6c7.2,0,13.1,3.1,17.5,9.2V39.7l11.4-12.3v77.4h-11.4v-8.2c-4.2,6-10.4,9-18.4,9C338.7,105.6,332.2,102.8,327.6,97.8zM331.3,77.8c-0.2,4.8,1.6,9.4,5,12.8c3.1,3.2,7.3,4.9,11.7,4.9c4.3,0.1,8.5-1.8,11.4-5c3.2-3.5,4.9-8.1,4.7-12.8c0.1-4.8-1.5-9.4-4.7-13c-2.9-3.4-7.1-5.3-11.5-5.2c-4.5,0-8.7,1.9-11.7,5.2C333,68.2,331.2,72.9,331.3,77.8L331.3,77.8z"/><path fill="#fff" d="M387.4,103.4c-1.4-1.4-2.2-3.4-2.2-5.4c0-2,0.8-4,2.2-5.4c1.4-1.4,3.3-2.2,5.4-2.2c2,0,4,0.8,5.4,2.2c1.5,1.4,2.3,3.4,2.2,5.4c0,2-0.8,4-2.2,5.4c-1.4,1.5-3.4,2.3-5.4,2.3C390.7,105.7,388.8,104.8,387.4,103.4z"/><path fill="#fff" d="M387,103.4c-1.5-1.5-2.2-3.3-2.2-5.4c0-2.1,0.7-3.9,2.2-5.4c1.5-1.5,3.3-2.2,5.4-2.2c2.1,0,3.9,0.7,5.4,2.2c1.5,1.5,2.3,3.3,2.3,5.4c0,2.1-0.8,3.9-2.3,5.4c-1.5,1.5-3.3,2.3-5.4,2.3C390.3,105.6,388.5,104.9,387,103.4z"/><path fill="#fff" d="M410.9,39.5c-1.4-1.4-2.2-3.1-2.2-5.1c0-2,0.7-3.7,2.2-5.1s3.1-2.2,5.1-2.2c2,0,3.7,0.7,5.1,2.2s2.2,3.1,2.2,5.1c0,2-0.7,3.7-2.2,5.1s-3.1,2.2-5.1,2.2C414.1,41.6,412.4,40.9,410.9,39.5zM421.7,104.8h-11.5V50.3h11.5V104.8z"/><path fill="#fff" d="M479,97.5c-5.5,5.4-12.3,8.1-20.5,8.1c-8.2,0-15-2.7-20.5-8.1c-5.5-5.4-8.2-12.1-8.2-19.9c0-7.9,2.7-14.5,8.2-19.9c5.5-5.4,12.3-8.1,20.5-8.1c8.2,0,15,2.7,20.5,8.1c5.5,5.4,8.2,12.1,8.2,19.9C487.2,85.4,484.5,92.1,479,97.5z M446.2,90.4c3.2,3.3,7.4,5,12.3,5c5,0,9.1-1.7,12.3-5c3.2-3.3,4.9-7.6,4.9-12.9c0-5.3-1.6-9.5-4.9-12.9c-3.2-3.3-7.4-5-12.3-5c-5,0-9.1,1.7-12.3,5c-3.2,3.3-4.9,7.6-4.9,12.9C441.3,82.8,443,87.1,446.2,90.4z"/></svg>
